<?xml version="1.0" standalone="no"?>
<!DOCTYPE svg PUBLIC "-//W3C//DTD SVG 20010904//EN"
 "http://www.w3.org/TR/2001/REC-SVG-20010904/DTD/svg10.dtd">
<svg version="1.0" xmlns="http://www.w3.org/2000/svg"
 width="650.000000pt" height="186.000000pt" viewBox="0 0 650.000000 186.000000"
 preserveAspectRatio="xMidYMid meet">
<metadata>
Created by potrace 1.10, written by Peter Selinger 2001-2011
</metadata>
<g transform="translate(0.000000,186.000000) scale(0.100000,-0.100000)"
fill="#ffa200" stroke="none">
<path d="M1680 1853 c-14 -2 -37 -17 -51 -34 -22 -25 -26 -41 -28 -96 -1 -37
-4 -70 -6 -74 -3 -4 -7 -101 -11 -215 -3 -115 -9 -308 -13 -429 -5 -127 -4
-231 1 -245 17 -45 48 -70 89 -70 60 0 85 17 115 79 62 129 223 371 247 371 4
0 5 -5 1 -11 -3 -6 -8 -28 -11 -48 -2 -20 -8 -65 -13 -101 -6 -36 -12 -90 -15
-120 -3 -30 -8 -66 -10 -80 -21 -113 -12 -166 34 -193 54 -31 120 -17 145 32
9 16 18 57 21 92 4 35 8 66 10 69 2 3 6 37 10 75 3 39 10 97 15 130 23 156 32
248 28 289 -12 107 -123 172 -222 131 -45 -19 -156 -122 -205 -190 -41 -57
-24 -59 26 -2 21 23 66 70 100 104 52 51 70 63 107 68 61 10 98 -1 132 -36 26
-27 29 -37 30 -107 1 -42 -2 -104 -7 -137 -5 -33 -11 -80 -14 -105 -12 -94
-35 -277 -41 -320 -9 -61 -34 -88 -81 -84 -55 3 -77 35 -68 99 4 27 11 88 15
135 19 180 22 206 29 246 9 48 -1 74 -29 74 -31 0 -175 -203 -240 -338 -27
-56 -41 -75 -68 -88 -32 -15 -38 -15 -68 0 -33 15 -34 17 -35 78 -4 307 18
936 33 955 5 7 7 16 4 21 -6 10 24 39 62 60 14 7 22 8 22 2 0 -6 11 -15 25
-20 33 -13 39 -43 31 -163 -3 -56 -9 -185 -13 -286 -5 -156 -4 -183 8 -179 8
3 15 18 15 34 1 16 4 110 8 209 4 99 9 212 12 250 3 39 2 84 -1 100 -9 48 -65
79 -125 68z"/>
<path d="M689 1836 c-3 -4 -81 -7 -173 -8 -92 -1 -169 -5 -172 -9 -4 -7 -75
-24 -139 -34 -98 -14 -126 -28 -151 -76 -19 -38 -13 -67 23 -109 26 -32 27
-32 102 -27 42 3 83 8 91 11 13 5 15 -9 12 -103 l-3 -110 -27 -6 c-15 -3 -40
-7 -57 -9 -101 -13 -129 -21 -156 -43 -16 -14 -29 -34 -29 -46 1 -21 2 -20 21
5 22 29 47 38 172 59 44 7 84 20 92 29 11 12 15 44 16 119 1 88 -2 106 -18
122 -15 15 -24 17 -53 9 -62 -16 -104 -17 -132 -4 -32 16 -42 43 -33 85 10 42
50 58 189 76 28 3 68 14 89 23 29 13 47 16 66 9 15 -5 62 -6 111 -1 47 5 145
8 218 8 128 -1 135 -2 153 -25 26 -32 24 -73 -5 -100 -22 -20 -36 -23 -167
-27 -192 -6 -229 -11 -245 -31 -19 -26 -19 -216 0 -232 11 -9 41 -9 124 1 104
11 112 11 132 -7 14 -13 20 -30 20 -60 0 -62 0 -61 -176 -94 -50 -9 -98 -22
-106 -29 -13 -10 -17 -50 -23 -210 -4 -108 -8 -211 -9 -229 -2 -35 -27 -68
-55 -76 -28 -7 -80 19 -90 45 -5 13 -6 113 -4 223 6 242 9 235 -98 217 -118
-20 -131 -17 -178 43 l-23 30 7 -30 c11 -47 46 -77 91 -78 43 -1 144 10 167
19 12 4 14 -27 10 -208 -4 -201 -3 -215 16 -245 34 -54 119 -55 168 -1 15 17
19 47 24 241 3 122 4 228 2 235 -3 6 -1 12 3 13 26 2 53 6 84 12 19 4 57 9 84
13 86 10 136 49 136 107 0 41 -27 86 -58 98 -28 11 -118 5 -187 -11 -22 -5
-43 -10 -47 -10 -5 0 -8 50 -8 110 l0 110 28 -1 c15 -1 101 2 192 6 180 7 198
13 226 67 13 25 14 38 5 68 -19 63 -40 75 -150 78 -53 2 -99 1 -102 -2z"/>
<path d="M3199 1445 c-52 -28 -58 -64 -64 -417 l-5 -324 30 -29 c54 -52 142
-34 169 34 5 14 12 67 15 116 6 102 15 145 40 194 26 49 98 117 148 139 100
45 141 62 149 62 5 0 29 9 53 20 52 25 82 73 72 115 -11 42 -59 85 -96 85 -66
0 -286 -89 -342 -138 -17 -14 -18 -12 -18 31 0 59 -16 95 -51 113 -35 18 -66
17 -100 -1z m111 -42 c16 -21 21 -38 18 -70 -4 -55 20 -73 60 -45 81 55 219
109 307 119 52 6 88 -27 83 -77 -3 -32 -36 -68 -69 -74 -8 -2 -23 -6 -34 -10
-257 -94 -334 -183 -357 -411 -11 -115 -23 -146 -60 -159 -34 -12 -85 8 -94
38 -7 19 -6 315 1 376 1 14 3 85 4 158 1 127 2 134 26 157 34 35 86 34 115 -2z"/>
<path d="M1334 1401 c-43 -26 -58 -76 -48 -149 21 -155 5 -251 -59 -344 -35
-52 -50 -62 -79 -52 -60 19 -109 257 -69 333 17 31 22 120 9 146 -13 24 -35
42 -66 55 -17 7 -32 5 -60 -9 -71 -36 -101 -122 -101 -288 0 -72 6 -129 14
-154 8 -21 12 -39 10 -39 -2 0 7 -25 21 -56 44 -101 125 -189 184 -202 53 -11
118 -4 172 17 69 26 197 195 213 281 2 11 7 25 10 31 18 28 26 215 14 294 -12
75 -46 127 -94 145 -35 13 -35 13 -71 -9z m95 -35 c52 -47 63 -283 21 -417
-55 -174 -173 -287 -301 -289 -180 -2 -316 320 -246 582 19 70 31 93 59 112
33 24 64 19 88 -11 19 -24 21 -36 16 -86 -3 -32 -11 -67 -17 -79 -14 -26 -13
-134 3 -196 21 -84 74 -162 111 -162 31 0 87 68 124 149 33 71 34 80 32 178
-1 56 -6 107 -9 113 -11 18 5 88 25 110 21 23 66 21 94 -4z"/>
<path d="M2692 1389 c-13 -5 -33 -11 -45 -13 -27 -5 -60 -18 -67 -25 -3 -3
-23 -15 -45 -26 -22 -11 -72 -51 -111 -90 -184 -182 -197 -421 -28 -520 60
-35 159 -34 231 2 51 26 151 106 194 156 l27 31 -1 -102 c0 -99 1 -104 27
-131 36 -37 67 -45 110 -27 70 29 71 35 67 360 -1 159 -5 301 -7 315 -3 14
-18 38 -34 53 -28 26 -31 27 -162 26 -73 0 -143 -4 -156 -9z m305 -37 c22 -24
23 -33 24 -171 0 -80 3 -219 5 -308 l4 -162 -27 -26 c-33 -30 -72 -32 -104 -6
-22 17 -25 29 -29 117 -7 128 -19 138 -87 73 -87 -84 -142 -121 -205 -141
-130 -40 -234 16 -269 146 -34 126 71 328 219 419 44 28 170 79 180 73 4 -2
16 0 27 5 11 4 69 7 130 7 103 -1 110 -3 132 -26z"/>
<path d="M2715 1206 c-131 -41 -255 -173 -255 -269 0 -34 24 -67 49 -67 60 0
268 210 295 298 9 26 -8 52 -33 51 -9 0 -34 -6 -56 -13z m62 -45 c-68 -118
-213 -261 -265 -261 -53 0 -13 123 62 194 48 46 165 102 212 103 7 0 3 -15 -9
-36z"/>
<path d="M4118 1385 c-177 -49 -333 -203 -383 -379 -35 -121 18 -251 120 -297
64 -30 151 -25 220 11 71 37 142 93 180 141 17 21 32 38 35 39 3 0 3 -38 2
-84 -3 -64 0 -91 13 -117 28 -52 44 -64 93 -64 37 0 48 5 73 33 l29 32 0 300
c0 410 6 399 -205 398 -74 0 -150 -6 -177 -13z m327 -33 c28 -28 28 -21 31
-412 l1 -225 -25 -27 c-33 -36 -74 -37 -107 -3 -23 22 -25 32 -25 119 0 87 -2
95 -21 101 -15 5 -32 -5 -72 -42 -87 -82 -150 -122 -219 -140 -61 -16 -67 -16
-118 1 -90 30 -130 92 -130 203 0 81 14 129 58 205 52 90 188 198 267 213 11
2 20 4 20 5 0 1 20 7 45 15 25 7 95 13 157 12 107 0 114 -1 138 -25z"/>
<path d="M4169 1206 c-128 -35 -259 -169 -259 -267 0 -35 23 -69 48 -69 73 0
326 280 295 328 -13 22 -28 23 -84 8z m54 -48 c-74 -116 -128 -177 -204 -229
-49 -33 -59 -36 -75 -25 -16 12 -17 18 -5 56 32 108 111 181 241 224 69 23 73
20 43 -26z"/>
</g>
</svg>
